<?xml version="1.0" encoding="utf-8"?>
<!-- Generator: Adobe Illustrator 12.0.0, SVG Export Plug-In . SVG Version: 6.00 Build 51448)  -->
<!DOCTYPE svg PUBLIC "-//W3C//DTD SVG 1.1//EN" "http://www.w3.org/Graphics/SVG/1.1/DTD/svg11.dtd" [
	<!ENTITY ns_svg "http://www.w3.org/2000/svg">
	<!ENTITY ns_xlink "http://www.w3.org/1999/xlink">
]>
<svg  version="1.1" id="Ebene_1" xmlns="&ns_svg;" xmlns:xlink="&ns_xlink;" width="187.793" height="235.56"
	 viewBox="0 0 187.793 235.56" overflow="visible" enable-background="new 0 0 187.793 235.56" xml:space="preserve">
<path fill="#312E29" d="M187.793,90.308c0,49.877-59.946,145.252-90.31,145.252c-28.723,0-90.308-95.375-90.308-145.252
	C7.176,40.431,47.608,0,97.482,0C147.359,0,187.793,40.431,187.793,90.308z"/>
<polygon fill="#FFFFFF" points="185.917,57.372 93.08,11.231 93.042,11.11 92.958,11.16 92.875,11.11 92.837,11.231 0,57.372 
	7.735,72.937 92.958,30.573 178.182,72.937 "/>
<g>
	<path fill="#FFFFFF" d="M158.34,149.69h-30.463v-10.555c0-3.924-1.658-7.543-4.674-9.953c-2.563-2.111-5.129-4.072-7.692-5.731
		V123.3V110.48c-1.658-1.055-2.715-2.863-2.715-4.976V92.233c0-6.633,5.278-11.914,11.914-11.914h1.358h1.356
		c6.637,0,11.912,5.281,11.912,11.914v13.271c0,2.113-1.055,3.92-2.715,4.976v12.671c0,0.148,0.153,0.45,0.304,0.602
		c1.81,0.905,10.557,5.277,18.852,12.063c1.507,1.207,2.261,3.017,2.261,4.977v8.897H158.34z M71.779,119.077
		c-2.113,1.056-12.519,6.335-22.019,14.175c-1.81,1.359-2.713,3.62-2.713,5.884v10.707h37.701h37.703v-10.707
		c0-2.264-1.057-4.374-2.717-5.884c-9.649-7.84-19.906-13.119-22.018-14.175c-0.301-0.149-0.453-0.301-0.453-0.604v-14.929
		c1.811-1.205,3.168-3.316,3.168-5.88V82.132c0-7.691-6.335-14.027-14.026-14.027h-1.658h-1.66c-7.691,0-14.024,6.335-14.024,14.027
		v15.532c0,2.414,1.206,4.524,3.166,5.88v14.929C72.23,118.776,72.08,119.077,71.779,119.077z M32.267,123.753
		c-1.809,0.905-10.556,5.277-18.85,12.063c-1.509,1.207-2.263,3.017-2.263,4.977v9.05h30.464v-10.707
		c0-3.924,1.658-7.543,4.674-9.953c2.563-2.111,5.125-4.072,7.691-5.731V123.3V110.48c1.658-1.055,2.714-2.863,2.714-4.976V92.233
		c0-6.633-5.28-11.914-11.915-11.914h-1.355h-1.36c-6.635,0-11.912,5.281-11.912,11.914v13.271c0,2.113,1.055,3.92,2.714,4.976
		v12.671C32.569,123.451,32.569,123.604,32.267,123.753z"/>
</g>
</svg>
