<?xml version="1.0" encoding="utf-8"?>
<!-- Generator: Adobe Illustrator 12.0.0, SVG Export Plug-In . SVG Version: 6.00 Build 51448)  -->
<!DOCTYPE svg PUBLIC "-//W3C//DTD SVG 1.1//EN" "http://www.w3.org/Graphics/SVG/1.1/DTD/svg11.dtd" [
	<!ENTITY ns_svg "http://www.w3.org/2000/svg">
	<!ENTITY ns_xlink "http://www.w3.org/1999/xlink">
]>
<svg  version="1.1" id="Ebene_1" xmlns="&ns_svg;" xmlns:xlink="&ns_xlink;" width="229.374" height="235.56"
	 viewBox="0 0 229.374 235.56" overflow="visible" enable-background="new 0 0 229.374 235.56" xml:space="preserve">
<path fill="#312E29" d="M229.374,90.308c0,49.877-59.946,145.252-90.31,145.252c-28.723,0-90.308-95.375-90.308-145.252
	C48.756,40.431,89.188,0,139.062,0C188.939,0,229.374,40.431,229.374,90.308z"/>
<g>
	<path fill="#FFFFFF" d="M50.339,31.688c0.039-13.9-11.202-25.196-25.125-25.224C11.334,6.426,0.051,17.681,0,31.585
		c-0.035,13.888,11.22,25.172,25.121,25.204C39.013,56.835,50.321,45.572,50.339,31.688z"/>
</g>
<g>
	<path fill="#FFFFFF" d="M133.491,49.324c7.396-1.138,15.585,2.674,19.988,8.851c4.287,6.019,6.271,13.223,7.237,20.483
		c0.795,5.97,1.442,11.759,1.101,17.804c-0.119,2.171-0.096,4.408-0.733,6.491c-0.585,1.902-0.916,4.419-1.894,6.148
		c-1.1,1.949-2.202,3.898-3.304,5.847c-0.893,1.573-2.354,2.973-3.482,4.375c-1.061,1.318-2.194,2.597-3.138,4.005
		c-1.084,1.614-2.82,3.424-3.485,5.253c-0.712,1.949-1.438,3.529-1.438,5.59c0,1.854-0.255,3.816,0.261,5.607
		c1.232,4.265,2.511,8.559,3.44,12.902c0.545,2.547,1.401,5.121,1.627,7.695c0.228,2.663,0.868,6.354,0.924,9.04
		c0.07,3.018,0.052,5.481-0.033,8.505c-0.073,2.587-0.188,5.783-0.706,9.038c-0.352,2.219-0.595,2.946-1.225,5.179
		c-0.604,2.136-1.453,4.267-2.679,6.155c-1.868,2.873-4.234,3.896-7.5,3.926c-1.253,0.014-2.466-0.102-3.83-0.581
		c-1.789-0.631-2.848-2.364-3.727-4.058c-1.842-3.562-2.375-7.455-2.829-11.408c-0.382-3.325-0.615-6.624-0.63-9.964
		c-0.022-4.568,0.056-9.132,0.203-13.699c0.109-3.313,0.218-6.638,0.481-9.947c0.293-3.637,1.03-7.235,1.372-10.874
		c0.476-5.097,1.7-10.125,2.096-15.226c0.643-8.227,1.341-16.425,1.625-24.672c0.574-16.8,0.539-33.582,0.311-50.39
		C133.508,50.708,133.499,50.017,133.491,49.324z"/>
	<g>
		<path fill="#FFFFFF" d="M104.389,87.074c2.025,1.313,5.561,0.419,6.162-2.133c0.829-3.538,0.484-7.401,0.396-11.002
			c-0.198-8.025-0.399-16.005-0.399-24.033c2.031-0.021,4.364,0.074,7.319,0.761c1.344,0.312,1.595,0.538,1.595,0.538
			s0.157,3.564,0.223,5.172c0.23,5.847,0.481,11.694,0.77,17.538c0.281,5.723,0.458,11.44,0.471,17.17
			c0.01,4.888-0.348,9.601-3.326,13.655c-2.751,3.744-6.596,5.693-10.191,8.429c-4.093,3.117-3.736,7.746-2.989,12.426
			c1.797,11.241,3.208,22.512,4.306,33.852c0.564,5.851,0.871,11.735,0.728,17.616c-0.13,5.298-0.359,10.906-2.103,15.954
			c-1.376,3.988-4.427,8.948-9.118,9.203c-4.455,0.237-7.268-3.915-8.539-7.661c-3.566-10.501-2.897-21.814-2.047-32.681
			c0.453-5.8,0.82-11.607,1.408-17.392c0.598-5.884,1.579-11.745,2.424-17.596c0.475-3.296,1.886-8.5-0.417-11.378
			c-2.396-2.995-6.18-4.286-9.159-6.554c-7.628-5.813-6.995-15.352-6.599-24.008c0.443-9.624,1.228-29.798,1.572-33.944
			c0,0,1.851-0.348,2.747-0.458c2.045-0.25,4.104-0.389,6.148-0.643c0.105,5.963,0.16,11.927,0.13,17.892
			c-0.031,5.734-0.463,11.511-0.092,17.239c0.187,2.859,4.467,3.059,6.196,1.604c1.419-1.197,1.173-3.901,1.265-5.565
			c0.168-2.965,0.073-5.932,0.004-8.897c-0.136-5.849-0.107-11.701-0.167-17.553c-0.011-1.072-0.067-2.153-0.066-3.226
			c0-1.57,0.013-1.938,0.013-1.938s1.915-0.31,2.363-0.335c1.283-0.064,1.588-0.134,2.731-0.139c0.765-0.002,1.28,0.064,3.231,0.31
			c0.67,0.083,1.695,0.464,1.695,0.464s-0.05,3.264-0.077,4.897c-0.094,5.721-0.188,11.438-0.333,17.158
			c-0.078,3.108-0.169,6.228-0.169,9.341c0,1.277,0.033,2.604,0.394,3.839c0.346,1.197,1.685,1.698,2.006,2.807"/>
	</g>
</g>
</svg>
