<?xml version="1.0" encoding="utf-8"?>
<!-- Generator: Adobe Illustrator 16.0.0, SVG Export Plug-In . SVG Version: 6.00 Build 0)  -->
<!DOCTYPE svg PUBLIC "-//W3C//DTD SVG 1.1//EN" "http://www.w3.org/Graphics/SVG/1.1/DTD/svg11.dtd">
<svg version="1.1" xmlns="http://www.w3.org/2000/svg" xmlns:xlink="http://www.w3.org/1999/xlink" x="0px" y="0px" width="256px"
	 height="256px" viewBox="0 0 256 256" enable-background="new 0 0 256 256" xml:space="preserve">
<g id="Layer_6" display="none">
	<rect x="-14" y="-10" display="inline" fill="#B3B3B3" width="281" height="275"/>
</g>
<g id="Layer_1" display="none">
	<g display="inline">
		<path fill="#33312D" d="M225.525,99.208c0,53.011-63.713,154.375-95.981,154.375c-30.527,0-95.981-101.364-95.981-154.375
			c0-53.01,42.972-95.981,95.979-95.981C182.551,3.227,225.525,46.198,225.525,99.208z"/>
		<path fill="#33312D" d="M225.525,99.208c0,53.011-63.713,154.375-95.981,154.375c-30.527,0-95.981-101.364-95.981-154.375
			c0-53.01,42.972-95.981,95.979-95.981C182.551,3.227,225.525,46.198,225.525,99.208z"/>
		<g>
			<circle fill="#FFFFFF" cx="168.783" cy="106.804" r="13.9"/>
			<path fill="#FFFFFF" d="M146.057,150.423l4.207-4.713c0.812-0.787,1.453-0.472,1.414,0.653l-1.276,35.77
				c-0.041,1.126,0.858,1.867,1.984,1.867h32.795c1.126,0,2.014-0.724,1.975-1.852l-0.338-9.364
				c-0.041-1.127-0.732-1.356-1.534-0.565l-1.979,1.967c-0.803,0.791-2.107,0.79-2.899-0.014l-20.034-20.391
				c-0.791-0.804-0.779-2.104,0.028-2.895l13.918-13.67c0.802-0.79,2.108-0.781,2.898,0.026l7.206,7.339
				c0.792,0.804,1.438,1.426,1.438,1.383c-0.003-0.044,0.409,0.368,0.91,0.917c0.501,0.548,0.9,1.007,0.888,1.017
				c-0.018,0.016-0.043,0.039-0.063,0.057c-0.017,0.017-0.757,0.671-1.603,1.417l-8.369,7.393c-0.844,0.746-0.905,2.034-0.139,2.858
				l5.577,6.01c0.767,0.826,2.085,0.893,2.931,0.144l8.315-7.346c0.847-0.746,2.227-1.969,3.071-2.719l1.61-1.424
				c0.84-0.749,2.085-2.103,2.758-3.001c0,0,0.746-0.999,0.829-2.643c0.086-1.647-0.559-2.712-0.559-2.712
				c-0.575-0.966-1.673-2.438-2.436-3.272l-13.038-14.226c-0.759-0.833-1.402-1.341-1.428-1.32
				c-0.022,0.023-0.966-1.114-2.092-1.114h-28.589c-1.125,0-2.135,1.153-2.237,1.148c-0.104-0.004-0.903,0.559-1.716,1.343
				l-4.48,4.388V145"/>
			<path fill="#FFFFFF" d="M138.669,153.949c-1.228-0.195-1.991-0.771-1.991-0.771c-0.92-0.652-2.303-1.976-3.076-2.797l-1.47-1.556
				c-0.772-0.822-2.048-2.149-2.84-2.95l-14.873-15.151c-0.792-0.804-0.778-2.109,0.027-2.898l1.516-1.493l-26.48-27.737
				c-0.586-0.612-0.563-1.587,0.052-2.173s1.586-0.564,2.172,0.051l26.453,27.709l2.136-2.096c0.806-0.79,2.11-0.773,2.899,0.03
				l14.921,15.209c0.79,0.804,1.481,1.522,1.497,1.543c0.021,0.018,0.043,0.071,0.055,0.085c0.014,0.018,0.632-0.555,1.44-1.339
				l4.894-4.735v-75.95c0-4.105-3.791-7.929-8.608-7.929H67.618C62.801,49,59,52.823,59,56.929v89.21
				c0,4.105,3.801,7.861,8.618,7.861h69.773C137.829,154,138.25,154.012,138.669,153.949"/>
		</g>
	</g>
</g>
<g id="Layer_2" display="none">
	<g display="inline">
		<path fill="#33312D" d="M225.663,99.532c0,53.01-63.713,154.375-95.981,154.375c-30.527,0-95.981-101.364-95.981-154.375
			c0-53.01,42.972-95.981,95.98-95.981C182.688,3.55,225.663,46.522,225.663,99.532z"/>
		<g>
			<g>
				<path fill="#FFFFFF" stroke="#000000" stroke-width="4.1347" stroke-miterlimit="10" d="M130.588,171.262
					c-1.854,0-3.71-0.709-5.127-2.126l-51.256-51.258c-14.128-14.135-14.128-37.135,0-51.272
					c6.843-6.843,15.938-10.612,25.624-10.612c9.683,0,18.787,3.772,25.64,10.62l5.119,5.116l5.124-5.123
					c6.845-6.841,15.943-10.612,25.625-10.612c9.687,0,18.79,3.771,25.643,10.621c14.132,14.137,14.123,37.137,0,51.264
					l-51.263,51.256C134.3,170.553,132.446,171.262,130.588,171.262L130.588,171.262z M99.829,70.505
					c-5.811,0-11.265,2.259-15.367,6.361c-8.473,8.477-8.473,22.273,0,30.754l46.126,46.128l46.132-46.128
					c8.472-8.473,8.472-22.268,0-30.748c-8.22-8.211-22.546-8.211-30.746-0.007l-10.248,10.251
					c-2.834,2.834-7.427,2.828-10.257,0.003l-10.26-10.245C111.099,72.767,105.636,70.505,99.829,70.505L99.829,70.505z"/>
			</g>
			<g>
				<path fill="#FFFFFF" stroke="#000000" stroke-width="4.1347" stroke-miterlimit="10" d="M130.597,128.498L130.597,128.498
					c-1.925,0-3.771-0.767-5.128-2.126l-14.496-14.504c-2.834-2.834-2.834-7.423,0-10.258c2.835-2.832,7.426-2.832,10.257,0
					l9.367,9.372l23.86-23.867c2.835-2.834,7.426-2.834,10.26,0c2.835,2.83,2.835,7.426,0,10.258l-28.991,28.999
					C134.365,127.734,132.523,128.498,130.597,128.498L130.597,128.498z"/>
			</g>
		</g>
	</g>
</g>
<g id="Layer_3" display="none">
	<g display="inline">
		<path fill="#33312D" d="M200.305,137.587l-38.068,28.771c-2.684,2.289-6.191,3.642-9.29,3.642H93.381
			c-6.628,0-9.585-4.733-9.585-9.568c0-4.804,4.761-9.432,9.585-9.432h34.603c0.468,2,1.825,5.606,3.391,7.221
			c4.559,4.617,12.964,4.195,17.59-0.295l16.994-16.542l-2.709-3.032l-16.961,16.553c-3.424,3.302-8.898,3.224-12.246-0.168
			c-0.979-1.043-1.707-2.305-2.066-3.649c-0.419-1.429-0.447-2.921-0.154-4.342c0.406-1.623,1.236-3.058,2.418-4.188l31.049-30.145
			c0,0,2.556-2.63,5.451-4.319c3.139-1.83,7.682-2.093,7.682-2.093h47.526c0.158-2,0.267-4.347,0.267-6.638
			c0-53.01-42.975-95.896-95.982-95.896c-53.008,0-95.98,43.015-95.98,96.023c0,53.011,65.454,153.566,95.98,153.566
			c31.686,0,73.438-81.435,88.157-115.546L200.305,137.587z"/>
		<path fill="#FFFFFF" d="M74.786,68.688v28.403c0,4.954,3.663,8.982,8.165,8.982h3.01v7.611c0,1.067,0.6,2.042,1.552,2.522
			c0.402,0.203,0.842,0.304,1.274,0.304c0.593,0,1.181-0.188,1.678-0.553l13.405-9.885h21.605c4.502,0,8.164-4.029,8.164-8.982
			V85.717h4.828l13.428,9.914c0.496,0.366,1.086,0.552,1.679,0.552c0.437,0,0.874-0.101,1.274-0.303
			c0.951-0.48,1.551-1.457,1.551-2.523v-7.64h2.492c4.503,0,8.164-4.03,8.164-8.982V48.331c0-4.952-3.661-8.98-8.164-8.98H116.37
			c-4.504,0-8.167,4.028-8.167,8.98v11.375H82.951C78.449,59.707,74.786,63.735,74.786,68.688z M139.395,80.065h-5.759V68.688
			c0-4.95-3.663-8.981-8.167-8.981h-11.618V48.331c0-1.806,1.152-3.329,2.516-3.329h42.52c1.362,0,2.515,1.523,2.515,3.329v28.4
			c0,1.806-1.152,3.332-2.515,3.332h-5.314c-1.562,0-2.826,1.266-2.826,2.826v4.867l-9.673-7.141
			c-0.486-0.358-1.074-0.552-1.68-0.552V80.065z M80.437,68.688c0-1.804,1.152-3.329,2.515-3.329h42.521
			c1.361,0,2.513,1.524,2.513,3.329v28.402c0,1.804-1.151,3.33-2.513,3.33h-22.532c-0.604,0-1.192,0.194-1.679,0.552l-9.648,7.117
			v-4.843c0-1.559-1.266-2.826-2.826-2.826h-5.836c-1.363,0-2.515-1.526-2.515-3.33V68.688z"/>
	</g>
</g>
<g id="Layer_4">
	<g>
		<path fill="#33312D" d="M227,99.72c0,53.01-63.713,154.374-95.98,154.374c-30.528,0-95.982-101.364-95.982-154.374
			s42.972-95.981,95.98-95.981C184.025,3.738,227,46.71,227,99.72z"/>
		<path fill="#FFFFFF" d="M109.034,146.681l-1.461-5.563h58.897c2.312,0,4.337-1.55,4.943-3.781l12.296-45.255
			c0.42-1.538,0.098-3.185-0.873-4.456c-0.969-1.264-2.475-2.01-4.07-2.01H92.983l-3.167-12.043
			c-0.591-2.25-2.627-3.819-4.955-3.819H70.903c-2.83,0-5.123,2.293-5.123,5.123c0,2.829,2.293,5.122,5.123,5.122h10.008
			l17.966,68.35c-3.557,2.3-5.918,6.296-5.918,10.848c0,7.134,5.783,12.919,12.918,12.919c6.879,0,12.487-5.383,12.882-12.162
			h27.933c0.035,7.103,5.803,12.854,12.914,12.854c7.135,0,12.919-5.783,12.919-12.919c0-7.138-5.783-12.919-12.919-12.919
			c-2.993,0-5.74,1.027-7.931,2.736H114.62C113.062,148.269,111.154,147.214,109.034,146.681z M142.494,117.467l-2.988,13.402
			h-10.401l-3.38-13.402H142.494z M123.659,109.27l-3.38-13.408h27.03l-2.988,13.408H123.659z M120.651,130.869h-15.256
			l-3.643-13.402h15.519L120.651,130.869z M147.904,130.869l2.987-13.402h15.304l-3.644,13.402H147.904z M168.422,109.27h-15.701
			l2.986-13.408h16.355L168.422,109.27z M111.824,95.861l3.381,13.408H99.524l-3.643-13.408H111.824z"/>
	</g>
</g>
<g id="Layer_5" display="none">
	<g display="inline">
		<path fill="#33312D" d="M227.439,99.381c0,53.01-63.713,154.374-95.981,154.374c-30.528,0-95.981-101.364-95.981-154.374
			c0-53.011,42.972-95.982,95.979-95.982C184.465,3.398,227.439,46.37,227.439,99.381z"/>
		<g>
			<g>
				<defs>
					<rect id="SVGID_1_" x="84.832" y="27.144" width="93.559" height="155.689"/>
				</defs>
				<clipPath id="SVGID_2_">
					<use xlink:href="#SVGID_1_"  overflow="visible"/>
				</clipPath>
				<path clip-path="url(#SVGID_2_)" fill="#FFFFFF" d="M164.242,56.426V31.983c0-3.484-3.567-5.824-6.76-4.433L90.478,56.458
					c0.258-0.014,0.532-0.032,0.791-0.032H164.242z M164.242,56.426"/>
			</g>
			<path fill="#FFFFFF" d="M178.375,176.254V67.722c0-3.569-2.889-6.454-6.454-6.454H91.284c-3.565,0-6.453,2.885-6.453,6.454
				v108.532c0,1.338,0.403,2.579,1.097,3.615c1.161,1.71,3.13,2.838,5.355,2.838h80.637
				C175.486,182.707,178.375,179.817,178.375,176.254L178.375,176.254z M164.242,128.819c-1.742,4.421-4.389,8.487-7.858,11.955
				c-6.631,6.632-15.423,10.275-24.798,10.275c-9.373,0-18.167-3.644-24.797-10.275c-6.629-6.63-10.277-15.423-10.277-24.797
				c0-9.373,3.647-18.166,10.277-24.796c6.63-6.63,15.424-10.278,24.797-10.278c9.375,0,18.167,3.648,24.798,10.278
				c3.47,3.468,6.116,7.514,7.858,11.951c1.582,4.034,2.42,8.374,2.42,12.845C166.662,120.449,165.838,124.769,164.242,128.819
				L164.242,128.819z M164.242,128.819"/>
			<path fill="#FFFFFF" d="M146.092,118.381h-12.068v10.084h10.777C145.51,125.319,145.945,121.915,146.092,118.381L146.092,118.381
				z M146.092,118.381"/>
			<path fill="#FFFFFF" d="M112.275,118.381h-10.81c0.292,3.565,1.193,6.971,2.613,10.084h9.374
				C112.807,125.319,112.403,121.929,112.275,118.381L112.275,118.381z M112.275,118.381"/>
			<path fill="#FFFFFF" d="M155.384,97.342c-3.097-3.936-7.147-7.099-11.81-9.114c1.791,2.517,3.324,5.6,4.52,9.114H155.384z
				 M155.384,97.342"/>
			<path fill="#FFFFFF" d="M149.462,102.183c0.808,3.518,1.308,7.34,1.454,11.376h10.809c-0.323-4.066-1.451-7.908-3.243-11.376
				H149.462z M149.462,102.183"/>
			<path fill="#FFFFFF" d="M134.023,145.745c0.888-0.341,1.773-0.856,2.646-1.563c1.743-1.423,3.388-3.569,4.774-6.229
				c0.744-1.438,1.404-2.969,1.97-4.616h-9.39V145.745z M134.023,145.745"/>
			<path fill="#FFFFFF" d="M121.763,137.935c1.387,2.664,3.032,4.824,4.775,6.229c0.872,0.71,1.758,1.226,2.646,1.565v-12.422
				h-9.391C120.358,134.968,121.019,136.502,121.763,137.935L121.763,137.935z M121.763,137.935"/>
			<path fill="#FFFFFF" d="M118.406,128.48h10.777v-10.083h-12.069C117.261,121.915,117.696,125.319,118.406,128.48L118.406,128.48z
				 M118.406,128.48"/>
			<path fill="#FFFFFF" d="M106.871,133.32c3.194,4.55,7.614,8.164,12.761,10.408c-2-2.824-3.68-6.357-4.938-10.408H106.871z
				 M106.871,133.32"/>
			<path fill="#FFFFFF" d="M117.115,113.541h12.069v-11.372h-10.456C117.825,105.7,117.276,109.541,117.115,113.541L117.115,113.541
				z M117.115,113.541"/>
			<path fill="#FFFFFF" d="M143.574,143.711c5.147-2.227,9.567-5.854,12.762-10.404h-7.824
				C147.269,137.371,145.592,140.889,143.574,143.711L143.574,143.711z M143.574,143.711"/>
			<path fill="#FFFFFF" d="M149.753,128.48h9.374c1.42-3.112,2.324-6.518,2.613-10.083h-10.809
				C150.802,121.929,150.399,125.319,149.753,128.48L149.753,128.48z M149.753,128.48"/>
			<path fill="#FFFFFF" d="M121.763,94.004c-0.55,1.048-1.05,2.164-1.501,3.338h8.922V86.195c-0.888,0.339-1.774,0.855-2.646,1.564
				C124.795,89.18,123.149,91.324,121.763,94.004L121.763,94.004z M121.763,94.004"/>
			<path fill="#FFFFFF" d="M113.728,102.183h-9.02c-1.774,3.453-2.919,7.31-3.242,11.376h10.81
				C112.419,109.522,112.92,105.7,113.728,102.183L113.728,102.183z M113.728,102.183"/>
			<path fill="#FFFFFF" d="M141.443,94.004c-1.387-2.662-3.031-4.824-4.774-6.229c-0.872-0.707-1.758-1.223-2.646-1.563v11.147
				h8.922C142.494,96.168,141.993,95.052,141.443,94.004L141.443,94.004z M141.443,94.004"/>
			<path fill="#FFFFFF" d="M144.479,102.183h-10.455v11.376h12.068C145.931,109.541,145.381,105.7,144.479,102.183L144.479,102.183z
				 M144.479,102.183"/>
			<path fill="#FFFFFF" d="M119.616,88.213c-4.664,2.015-8.712,5.178-11.811,9.113h7.293
				C116.308,93.827,117.825,90.729,119.616,88.213L119.616,88.213z M119.616,88.213"/>
		</g>
	</g>
</g>
</svg>
