<?xml version="1.0" encoding="utf-8"?>
<!-- Generator: Adobe Illustrator 12.0.0, SVG Export Plug-In . SVG Version: 6.00 Build 51448)  -->
<!DOCTYPE svg PUBLIC "-//W3C//DTD SVG 1.1//EN" "http://www.w3.org/Graphics/SVG/1.1/DTD/svg11.dtd" [
	<!ENTITY ns_svg "http://www.w3.org/2000/svg">
	<!ENTITY ns_xlink "http://www.w3.org/1999/xlink">
]>
<svg  version="1.1" id="Ebene_1" xmlns="&ns_svg;" xmlns:xlink="&ns_xlink;" width="182.23" height="237.662"
	 viewBox="0 0 182.23 237.662" overflow="visible" enable-background="new 0 0 182.23 237.662" xml:space="preserve">
<path fill="#312E29" d="M182.23,91.114c0,50.322-60.483,146.548-91.115,146.548C62.135,237.662,0,141.436,0,91.114
	C0,40.792,40.792,0,91.113,0C141.434,0,182.23,40.792,182.23,91.114z"/>
<path fill="#FFFFFF" d="M70.829,78.108c2.883,0,5.229,2.338,5.229,5.224c0,2.901-2.346,5.237-5.229,5.237
	c-2.885,0-5.236-2.333-5.236-5.237C65.593,80.446,67.944,78.108,70.829,78.108z"/>
<path fill="#FFFFFF" d="M121.801,96.115c2.884,0,5.229,2.338,5.229,5.224c0,2.903-2.346,5.238-5.229,5.238
	c-2.885,0-5.235-2.333-5.235-5.238C116.566,98.453,118.917,96.115,121.801,96.115z"/>
<path fill="#FFFFFF" d="M156.212,143.58c-6.302,0-13.857-7.105-21.852-14.633c-0.875-0.82-1.758-1.652-2.649-2.486l-2.72-11.608
	c-0.644-2.756-3.401-4.462-6.15-3.817c-2.222,0.521-3.741,2.418-3.913,4.58c-7.972-5.821-16.937-10.173-27.557-10.173v-45.77
	L60.858,42.509L32.253,59.673v45.77v15.255v41.957h5.721v-7.629h19.073v7.629h5.721v-7.629h22.886v7.629h5.722v-41.957v-3.812
	c13.477,0,24.494,10.369,35.145,20.394c9.696,9.127,18.854,17.748,29.694,17.748h1.908v7.627h5.72v-7.629h5.72V143.58H156.212z
	 M57.045,151.213h-19.07v-7.633h19.073v7.633H57.045z M57.045,139.77h-19.07v-7.629h19.073v7.629H57.045z M57.045,128.328h-19.07
	v-7.631h19.073v7.631H57.045z M85.651,105.442h-5.872l-2.272-9.701c-0.644-2.755-3.397-4.462-6.149-3.815
	c-2.752,0.644-4.461,3.397-3.817,6.149l1.725,7.366H37.975V63.485h47.678L85.651,105.442L85.651,105.442z"/>
</svg>
