<?xml version="1.0" encoding="utf-8"?>
<!-- Generator: Adobe Illustrator 12.0.0, SVG Export Plug-In . SVG Version: 6.00 Build 51448)  -->
<!DOCTYPE svg PUBLIC "-//W3C//DTD SVG 1.1//EN" "http://www.w3.org/Graphics/SVG/1.1/DTD/svg11.dtd" [
	<!ENTITY ns_svg "http://www.w3.org/2000/svg">
	<!ENTITY ns_xlink "http://www.w3.org/1999/xlink">
]>
<svg  version="1.1" id="Ebene_1" xmlns="&ns_svg;" xmlns:xlink="&ns_xlink;" width="192.444" height="242.647"
	 viewBox="0 0 192.444 242.647" overflow="visible" enable-background="new 0 0 192.444 242.647" xml:space="preserve">
<path fill="#312E29" d="M192.444,93.025c0,51.377-61.751,149.622-93.026,149.622c-29.587,0-93.025-98.244-93.025-149.622
	C6.392,41.648,48.04,0,99.417,0C150.792,0,192.444,41.648,192.444,93.025z"/>
<g>
	<g>
		<path fill="#FFFFFF" d="M44.745,67.861c4.736,0,7.79,3.752,9.239,8.272c0.409,1.263,3.12,3.458,3.56,4.471
			c0.18,0.411-5.384,0.187-5.629,0.55c-1.527,2.343-4.169,3.871-7.17,3.871c-2.843,0-5.359-1.367-6.922-3.506
			c-0.291-0.383-5.791,0.012-5.675-0.451c0.315-1.217,3.335-4.501,3.659-5.851C36.948,70.507,40.013,67.861,44.745,67.861z"/>
		<path fill="#FFFFFF" d="M34.603,168.239c0,2.653,2.156,4.802,4.805,4.802c2.66,0,4.817-2.148,4.817-4.802l0.004-30.482
			l2.139-0.131l-0.01,30.615c0,2.651,2.149,4.802,4.812,4.802c2.659,0,4.808-2.15,4.808-4.802l0.008-30.728l8.833-0.254
			l-8.83-32.037l0.006-6.568h2.106l5.067,25.167c1.161,5.113,6.824,2.674,6.345-0.117l-4.692-25.604
			c0-5.696-3.349-11.271-10.019-11.271l-19.233-0.022c-6.077,0-9.88,4.968-9.88,11.134v26.353c0,5.126,6.758,5.126,6.758,0V98.654
			h2.164l-0.002,6.028l-8.919,33.885l8.919,0.28L34.603,168.239z"/>
	</g>
	<g>
		<path fill="#FFFFFF" d="M85.372,107.943c2.934,0,5.32,2.378,5.32,5.313c0,2.952-2.386,5.327-5.32,5.327
			c-2.935,0-5.326-2.373-5.326-5.327C80.046,110.321,82.438,107.943,85.372,107.943z"/>
		<path fill="#FFFFFF" d="M79.083,169.618c0,1.632,1.323,2.975,2.979,2.975c1.65,0,2.98-1.343,2.98-2.975l0.002-25.034h1.333
			l-0.009,25.034c0,1.632,1.33,2.975,2.979,2.975c1.643,0,2.99-1.343,2.99-2.975l0.011-43.152h1.302l3.76,15.892
			c0.433,1.475,3.792,2.464,3.784-0.743l-3.374-15.475c0-3.543-2.087-7.008-6.218-7.008H79.681c-3.766,0-4.901-0.225-8.348-2.412
			l-6.446-3.463c-4.746,0-3.929,2.912-1.707,4.576l14.595,7.747l1.378,0.045L79.083,169.618z"/>
	</g>
	<g>
		<path fill="#FFFFFF" d="M112.992,107.943c2.947,0,4.83,2.32,5.731,5.114c0.257,0.808,1.923,2.15,2.208,2.781
			c0.103,0.25-3.333,0.115-3.488,0.343c-0.95,1.446-2.597,2.401-4.451,2.401c-1.76,0-3.316-0.849-4.287-2.182
			c-0.172-0.23-3.593,0.013-3.512-0.271c0.188-0.761,2.053-2.812,2.267-3.636C108.161,109.579,110.061,107.943,112.992,107.943z"/>
		<path fill="#FFFFFF" d="M106.437,169.67c0,1.639,1.339,2.974,2.985,2.974c1.653,0,2.978-1.335,2.978-2.974l0.011-18.903
			l1.329-0.082l-0.014,18.985c0,1.639,1.332,2.974,2.985,2.974c1.652,0,2.979-1.335,2.979-2.974l0.012-19.06l5.478-0.152
			l-5.471-19.872v-4.068l3.52-2.806l13.567-4.149c0,0,1.431-0.278,1.368-1.418c-0.158-2.963-0.263-1.655-1.368-2.798l-11.426,3.521
			c-4.135,0.299-2.269,0.316-6.414,0.316l-11.912-0.013c-3.768,0-6.128,3.077-6.128,6.925l-2.977,15.823
			c0,3.162,4.317,2.364,4.317-0.813l2.852-14.588h1.342v3.725l-5.534,21.035l5.534,0.155L106.437,169.67z"/>
	</g>
	<g>
		<path fill="#FFFFFF" d="M153.09,67.861c4.732,0,8.578,3.839,8.578,8.58c0,4.733-3.846,8.575-8.578,8.575
			c-4.745,0-8.586-3.844-8.586-8.575C144.504,71.7,148.345,67.861,153.09,67.861z"/>
		<path fill="#FFFFFF" d="M142.936,168.231c0,2.655,2.16,4.814,4.814,4.814c2.661,0,4.813-2.159,4.813-4.814l0.008-40.367h2.139
			l-0.015,40.367c0,2.655,2.156,4.814,4.809,4.814c2.665,0,4.81-2.159,4.81-4.814l0.022-69.588h2.119v25.641
			c0,5.163,6.724,5.163,6.709,0v-26.19c0-5.689-3.354-11.279-10.019-11.279l-19.234-0.009c-6.074,0-9.881,4.949-9.881,11.14v26.338
			c0,5.121,6.762,5.121,6.762,0V98.643h2.155L142.936,168.231z"/>
	</g>
</g>
<polygon fill="#FFFFFF" points="191.51,60.099 95.88,12.57 95.841,12.445 95.756,12.496 95.669,12.445 95.63,12.57 0,60.099 
	7.967,76.132 95.756,32.494 183.542,76.132 "/>
</svg>
