<?xml version="1.0" encoding="UTF-8" standalone="no"?>
<svg width="31px" height="41px" viewBox="0 0 31 41" version="1.1" xmlns="http://www.w3.org/2000/svg" xmlns:xlink="http://www.w3.org/1999/xlink" xmlns:sketch="http://www.bohemiancoding.com/sketch/ns">
    <!-- Generator: Sketch 3.3.3 (12072) - http://www.bohemiancoding.com/sketch -->
    <title>Pinpoint</title>
    <desc>Created with Sketch.</desc>
    <defs></defs>
    <g id="Page-1" stroke="none" stroke-width="1" fill="none" fill-rule="evenodd" sketch:type="MSPage">
        <g id="Desktop" sketch:type="MSArtboardGroup" transform="translate(-150.000000, -476.000000)" fill="#D0011B">
            <path d="M166.677646,515.180661 C166.786972,515.051541 166.98608,514.81272 167.262213,514.4757 C167.719127,513.918038 168.227408,513.285343 168.774332,512.589057 C170.336732,510.599971 171.899264,508.495656 173.360837,506.365865 C174.463107,504.759648 175.465566,503.199187 176.345584,501.703382 C178.859,497.431215 180.274404,493.900371 180.274404,491.137202 C180.274404,482.777156 173.497248,476 165.137202,476 C156.777156,476 150,482.777156 150,491.137202 C150,493.900371 151.415404,497.431215 153.92882,501.703382 C154.808838,503.199187 155.811297,504.759648 156.913567,506.365865 C158.37514,508.495656 159.937672,510.599971 161.500072,512.589057 C162.046996,513.285343 162.555277,513.918038 163.012191,514.4757 C163.288324,514.81272 163.487432,515.051541 163.596758,515.180661 L165.137202,517 L166.677646,515.180661 L166.677646,515.180661 Z M163.596758,512.572057 L166.677646,512.572057 C166.581992,512.459085 166.396761,512.236908 166.134821,511.917211 C165.694945,511.380343 165.203948,510.769162 164.674724,510.09541 C163.162419,508.1701 161.650245,506.133604 160.242093,504.081658 C159.189988,502.54854 158.237381,501.065682 157.408242,499.656356 C155.238266,495.96795 154.036916,492.971082 154.036916,491.137202 C154.036916,485.006683 159.006683,480.036916 165.137202,480.036916 C171.267721,480.036916 176.237488,485.006683 176.237488,491.137202 C176.237488,492.971082 175.036138,495.96795 172.866162,499.656356 C172.037023,501.065682 171.084416,502.54854 170.032311,504.081658 C168.624159,506.133604 167.111985,508.1701 165.59968,510.09541 C165.070456,510.769162 164.579459,511.380343 164.139583,511.917211 C163.877643,512.236908 163.692412,512.459085 163.596758,512.572057 L163.596758,512.572057 L163.596758,512.572057 Z M165.137202,497.193807 C168.481492,497.193807 171.192575,494.482724 171.192575,491.138433 C171.192575,487.794143 168.481492,485.08306 165.137202,485.08306 C161.792912,485.08306 159.081829,487.794143 159.081829,491.138433 C159.081829,494.482724 161.792912,497.193807 165.137202,497.193807 L165.137202,497.193807 Z" id="Pinpoint" sketch:type="MSShapeGroup"></path>
        </g>
    </g>
</svg>